<?xml version="1.0" encoding="UTF-8"?>
<svg version="1.1" xmlns="http://www.w3.org/2000/svg" width="2000" height="656">
<path d="M0 0 C2.02036033 -0.00543096 4.04071669 -0.01255904 6.06106567 -0.02124023 C11.50938305 -0.03935949 16.95739492 -0.03245371 22.40571713 -0.01972389 C28.12912345 -0.00953824 33.85250504 -0.01900481 39.57591248 -0.02526855 C49.18297991 -0.03252823 58.78992399 -0.02300081 68.39697266 -0.00390625 C79.47837693 0.01786537 90.55948681 0.0108021 101.64088398 -0.01121187 C111.18441574 -0.0294064 120.72785926 -0.03190459 130.27140278 -0.0214572 C135.95860327 -0.01524533 141.6456657 -0.01432298 147.33285713 -0.02760315 C152.68057685 -0.03922037 158.02791959 -0.03102915 163.37559891 -0.00802612 C165.32940103 -0.00277055 167.28323529 -0.00419826 169.23702431 -0.01307678 C187.62674673 -0.08889326 202.87024481 3.06816978 216.86499023 16.08007812 C229.23223701 29.20409684 233.13205228 43.81428282 232.90795898 61.59570312 C232.90371414 62.88829041 232.8994693 64.18087769 232.89509583 65.51263428 C232.8837837 68.9058457 232.85443924 72.29865576 232.82098389 75.69171143 C232.78998401 79.17137123 232.77636155 82.65109949 232.76147461 86.13085938 C232.73115371 92.92678372 232.67240295 99.72161408 232.61499023 106.51757812 C214.13499023 106.51757812 195.65499023 106.51757812 176.61499023 106.51757812 C176.61499023 90.01757812 176.61499023 73.51757812 176.61499023 56.51757812 C114.90499023 56.51757812 53.19499023 56.51757812 -10.38500977 56.51757812 C-10.38500977 92.81757813 -10.38500977 129.11757813 -10.38500977 166.51757812 C3.55233398 166.48277344 17.48967773 166.44796875 31.84936523 166.41210938 C40.68139815 166.39677996 49.51342142 166.38221376 58.34545898 166.37109375 C72.36258238 166.35330356 86.37965162 166.33240683 100.39672852 166.29125977 C110.60598678 166.26130489 120.81520104 166.24199066 131.02450204 166.23531264 C136.42739833 166.2314107 141.83016875 166.22227637 147.2330246 166.20038795 C152.32520184 166.1799266 157.41720213 166.17376376 162.50941658 166.17825508 C164.37172726 166.17743418 166.23404425 166.17152633 168.0963192 166.1599617 C186.66728189 166.05035735 202.46998625 168.98319055 216.44897461 182.13671875 C225.42322256 191.03926832 232.0929959 203.2675892 232.746418 216.09832096 C232.74939266 217.02204219 232.75236732 217.94576342 232.75543213 218.8974762 C232.76114227 219.96401932 232.76685242 221.03056244 232.7727356 222.12942505 C232.77385345 223.28949066 232.77497131 224.44955627 232.77612305 225.64477539 C232.78108795 226.87468704 232.78605286 228.10459869 232.79116821 229.3717804 C232.80325607 232.73996709 232.81073017 236.10809186 232.81517887 239.47629285 C232.81811739 241.5855309 232.82222376 243.6947636 232.82668304 245.80399895 C232.84035108 252.41733732 232.85001972 259.03066338 232.85388494 265.64401489 C232.85835662 273.25134132 232.87586588 280.85848727 232.90488553 288.46575886 C232.92659007 294.36239276 232.93659396 300.25897623 232.93792605 306.1556496 C232.93896833 309.66935902 232.94475097 313.18289864 232.96274567 316.69656563 C232.98247807 320.62597429 232.97790263 324.55516241 232.97143555 328.48461914 C232.98065033 329.63051514 232.98986511 330.77641113 232.99935913 331.95703125 C232.91806232 347.81424674 227.66260703 361.96105 216.61499023 373.51757812 C205.31137777 383.2693686 192.59026393 388.84307567 177.65412903 388.78500366 C176.35293948 388.79180033 176.35293948 388.79180033 175.02546328 388.79873431 C172.13703758 388.81133064 169.24880158 388.80976102 166.36035156 388.80810547 C164.28176635 388.81409376 162.20318336 388.82089999 160.12460327 388.82846069 C154.49007437 388.84609882 148.85560625 388.8508152 143.22105241 388.85209227 C139.69649709 388.85351584 136.17195712 388.85778938 132.64740562 388.8630867 C120.33898313 388.88158084 108.0306039 388.88975822 95.72216797 388.88818359 C84.26941425 388.88698287 72.81684919 388.90807336 61.36414319 388.93967092 C51.51501897 388.96587079 41.66595622 388.97654931 31.81679744 388.97527277 C25.94169426 388.97476417 20.06675875 388.98039115 14.19169044 389.00162888 C8.66187225 389.02107333 3.1323806 389.02109325 -2.39744949 389.00659561 C-4.41898516 389.00451401 -6.44054161 389.00916941 -8.46204185 389.02131653 C-27.22420741 389.12669253 -41.92420723 386.15284377 -56.02954102 372.90039062 C-67.69719919 361.097287 -72.61371391 348.00079482 -72.61160278 331.50242615 C-72.60128021 330.25832474 -72.59095764 329.01422333 -72.58032227 327.73242188 C-72.57749237 326.43558975 -72.57466248 325.13875763 -72.57174683 323.80262756 C-72.56417598 320.38481684 -72.54458536 316.96718097 -72.52233887 313.54943848 C-72.50173781 310.04991055 -72.49260463 306.55035303 -72.48266602 303.05078125 C-72.46239786 296.2062267 -72.42323573 289.36214985 -72.38500977 282.51757812 C-53.90500977 282.51757812 -35.42500977 282.51757812 -16.38500977 282.51757812 C-16.38500977 299.01757812 -16.38500977 315.51757812 -16.38500977 332.51757812 C47.30499023 332.51757812 110.99499023 332.51757812 176.61499023 332.51757812 C176.61499023 296.21757812 176.61499023 259.91757812 176.61499023 222.51757812 C162.52166992 222.55238281 148.42834961 222.5871875 133.90795898 222.62304688 C124.98022296 222.63837523 116.05249648 222.6529413 107.12475586 222.6640625 C92.95390564 222.68185684 78.78310896 222.70276521 64.61230469 222.74389648 C54.29135465 222.77383908 43.97044811 222.79316269 33.64945585 222.79984361 C28.18678834 222.80374761 22.72424522 222.81289524 17.26161766 222.8347683 C12.11445205 222.8552102 6.96746145 222.86139637 1.82025909 222.85690117 C-0.06343475 222.85772293 -1.94713478 222.86364246 -3.83079338 222.87519455 C-23.28526051 222.98859959 -37.83261912 219.03954864 -52.47875977 205.59570312 C-64.69961807 193.09282501 -67.70682263 177.12711697 -67.64379883 160.22827148 C-67.64730347 159.05279251 -67.65080811 157.87731354 -67.65441895 156.66621399 C-67.66316095 152.81322171 -67.6574141 148.96041575 -67.65063477 145.10742188 C-67.65108127 142.41182814 -67.65392317 139.71623763 -67.65643311 137.02064514 C-67.66005779 131.38475557 -67.65531268 125.74891866 -67.64575195 120.11303711 C-67.63486498 113.62086615 -67.63840077 107.12882082 -67.64940476 100.63665289 C-67.65851422 95.03546105 -67.65974527 89.43430677 -67.65452743 83.83310992 C-67.65142842 80.49956045 -67.65174018 77.16611674 -67.6576004 73.8325634 C-67.66270396 70.1141204 -67.6549017 66.39591559 -67.64379883 62.67749023 C-67.64784729 61.58993439 -67.65189575 60.50237854 -67.65606689 59.38186646 C-67.56661444 43.13386686 -62.70574886 28.23752951 -51.28735352 16.33007812 C-36.05524507 2.14568084 -19.94695445 -0.09074721 0 0 Z " fill="#FFFFFF" transform="translate(1326.385009765625,133.482421875)"/>
<path d="M0 0 C18.81 0 37.62 0 57 0 C61.5630328 5.21489462 65.91269743 10.35972324 70.0625 15.875 C71.19986237 17.37419768 72.33790618 18.87287859 73.4765625 20.37109375 C74.34716309 21.51747314 74.34716309 21.51747314 75.23535156 22.68701172 C78.11122394 26.45652125 81.02308809 30.19775344 83.9375 33.9375 C84.51540283 34.67943604 85.09330566 35.42137207 85.6887207 36.18579102 C86.86436029 37.6946725 88.0402237 39.20337964 89.21630859 40.71191406 C92.22953417 44.57722341 95.24020532 48.44451873 98.25 52.3125 C98.83773193 53.06781006 99.42546387 53.82312012 100.03100586 54.60131836 C104.16492467 59.9175205 108.27421789 65.25194173 112.375 70.59375 C115.56627975 74.74241368 118.784213 78.87032481 122 83 C126.01465625 88.15557352 130.02101023 93.31684228 134 98.5 C140.29429617 106.69698374 146.65013322 114.84603994 153 123 C160.14879829 132.17988011 167.28995283 141.36454382 174.375 150.59375 C177.56627975 154.74241368 180.784213 158.87032481 184 163 C188.01465625 168.15557352 192.02101023 173.31684228 196 178.5 C202.29429617 186.69698374 208.65013322 194.84603994 215 203 C222.14879829 212.17988011 229.28995283 221.36454382 236.375 230.59375 C239.56627975 234.74241368 242.784213 238.87032481 246 243 C250.01465625 248.15557352 254.02101023 253.31684228 258 258.5 C261.9620968 263.65918352 265.94470171 268.80204018 269.9375 273.9375 C270.47439453 274.6284375 271.01128906 275.319375 271.56445312 276.03125 C277.01826499 283.04052774 282.51285241 290.01635761 288 297 C288.33 198.99 288.66 100.98 289 0 C307.48 0 325.96 0 345 0 C345 128.04 345 256.08 345 388 C326.19 388 307.38 388 288 388 C273.22222222 369 273.22222222 369 266.625 360.40625 C263.43372025 356.25758632 260.215787 352.12967519 257 348 C252.18648277 341.81853877 247.39575121 335.62078118 242.625 329.40625 C239.43372025 325.25758632 236.215787 321.12967519 233 317 C228.98534375 311.84442648 224.97898977 306.68315772 221 301.5 C214.70570383 293.30301626 208.34986678 285.15396006 202 277 C194.84607715 267.81353937 187.70067657 258.62163273 180.609375 249.38671875 C175.10577055 242.23246227 169.54585115 235.12151142 164 228 C156.85120171 218.82011989 149.71004717 209.63545618 142.625 200.40625 C139.43372025 196.25758632 136.215787 192.12967519 133 188 C128.18648277 181.81853877 123.39575121 175.62078118 118.625 169.40625 C115.43372025 165.25758632 112.215787 161.12967519 109 157 C104.98534375 151.84442648 100.97898977 146.68315772 97 141.5 C93.10160707 136.4231713 89.18089767 131.36419972 85.25 126.3125 C84.66283203 125.55791504 84.07566406 124.80333008 83.47070312 124.02587891 C80.38304409 120.05902488 77.29356471 116.0935942 74.203125 112.12890625 C73.58276367 111.33250732 72.96240234 110.5361084 72.32324219 109.71557617 C71.14743327 108.20613855 69.9710443 106.69715251 68.79394531 105.1887207 C68.25350586 104.49480225 67.71306641 103.80088379 67.15625 103.0859375 C66.69025391 102.4882959 66.22425781 101.8906543 65.74414062 101.27490234 C63.13464487 97.87130752 60.57328842 94.43105123 58 91 C57.67 189.01 57.34 287.02 57 388 C38.19 388 19.38 388 0 388 C0 259.96 0 131.92 0 0 Z " fill="#FFFFFF" transform="translate(478,134)"/>
<path d="M0 0 C93.39 0 186.78 0 283 0 C283 18.48 283 36.96 283 56 C208.09 56 133.18 56 56 56 C56 92.3 56 128.6 56 166 C120.02 166 184.04 166 250 166 C250 184.48 250 202.96 250 222 C185.98 222 121.96 222 56 222 C56 258.3 56 294.6 56 332 C130.91 332 205.82 332 283 332 C283 350.48 283 368.96 283 388 C189.61 388 96.22 388 0 388 C0 259.96 0 131.92 0 0 Z " fill="#FFFFFF" transform="translate(1658,134)"/>
<path d="M0 0 C1.39643027 -0.00271925 2.79285909 -0.00628536 4.18928528 -0.01062012 C7.93731441 -0.01963636 11.68523183 -0.01624476 15.43326259 -0.00986195 C19.38467473 -0.00474449 23.33607827 -0.00950926 27.28749084 -0.01263428 C33.92019338 -0.01625779 40.55285116 -0.01151792 47.18554688 -0.00195312 C54.81545316 0.00892379 62.44525246 0.00540484 70.07515615 -0.00560594 C76.66586109 -0.0147305 83.25653414 -0.01593887 89.84724337 -0.0107286 C93.76607389 -0.00763655 97.68485441 -0.00712221 101.60368156 -0.01380157 C105.29170969 -0.0196501 108.97960217 -0.01544358 112.66761589 -0.00401306 C114.63864845 -0.00017863 116.60969271 -0.00598778 118.58071899 -0.01226807 C137.86199249 0.07744916 153.00084423 2.9417779 167.65649414 16.28613281 C177.44417176 26.43281791 182.75552297 39.71580396 182.69735718 53.72612 C182.70188829 54.54049351 182.7064194 55.35486703 182.71108782 56.19391853 C182.7236734 58.90269404 182.72211524 61.61126698 182.72045898 64.32006836 C182.72644795 66.27057654 182.73325435 68.22108236 182.74081421 70.17158508 C182.75844558 75.45695237 182.76316843 80.74225484 182.76444578 86.02764869 C182.76586976 89.33444179 182.77014407 92.64121855 182.77544022 95.94800758 C182.79393225 107.49781969 182.80211201 119.04758569 182.80053711 130.59741211 C182.7993365 141.34126058 182.82042518 152.0849079 182.85202444 162.82870549 C182.87823181 172.07061664 182.88890251 181.31246228 182.88762629 190.55441028 C182.8871179 196.06622413 182.89273302 201.57785921 182.91398239 207.08963585 C182.93343954 212.27801815 182.93343826 217.46605252 182.91894913 222.65444756 C182.91686907 224.55020408 182.9215136 226.44598282 182.93367004 228.34170151 C183.04373436 246.70656665 179.57638051 261.26626038 166.69165039 275.15722656 C157.06643176 284.10086667 144.90310715 289.35794143 131.80395508 289.40596008 C131.15140338 289.40963677 130.49885168 289.41331346 129.82652569 289.41710156 C127.64744457 289.42808394 125.46841122 289.43197299 123.28930664 289.43579102 C121.72347362 289.44205997 120.15764207 289.44870715 118.59181213 289.45570374 C113.45452908 289.47670181 108.3172459 289.48710476 103.17993164 289.49707031 C101.40676864 289.50111999 99.6336058 289.50523697 97.86044312 289.50942039 C89.5251618 289.52846573 81.18988929 289.542696 72.85459042 289.55103236 C63.25724024 289.56079115 53.66012154 289.58707783 44.06285286 289.62753326 C36.62991207 289.65778147 29.19703728 289.67250961 21.76403618 289.67581338 C17.33196603 289.67815466 12.90014334 289.68699376 8.46813965 289.71227455 C4.29180588 289.7357121 0.11587972 289.73972622 -4.06050301 289.72951317 C-5.58376491 289.72902142 -7.10704796 289.73523384 -8.63024712 289.74906921 C-24.91889479 289.88860489 -39.7193951 286.02265801 -51.82006836 274.63378906 C-66.10073716 259.40107568 -68.19027059 241.89659179 -68.0559082 221.99194336 C-68.05805985 220.11582678 -68.06194609 218.23971153 -68.06741333 216.36360168 C-68.07701739 211.31838253 -68.06191844 206.27352321 -68.04150724 201.22834754 C-68.02379902 195.92443813 -68.02746391 190.62053756 -68.02822876 185.31660461 C-68.02636251 176.41926127 -68.00908654 167.52205532 -67.98168945 158.62475586 C-67.9501976 148.36017305 -67.93969536 138.09574019 -67.94116056 127.83111256 C-67.94251439 116.86253085 -67.92862218 105.89400636 -67.91026735 94.92544198 C-67.90601925 91.78042331 -67.90458702 88.63541396 -67.90378952 85.49039268 C-67.90177108 80.53999216 -67.88948397 75.58971599 -67.86945724 70.63935661 C-67.8636489 68.82984428 -67.861148 67.02031763 -67.86231232 65.21079636 C-67.86725319 52.85079315 -67.79327987 41.2542876 -61.88256836 30.07128906 C-61.52662598 29.38494385 -61.17068359 28.69859863 -60.80395508 27.99145508 C-53.7603135 14.81166378 -42.74549869 6.83457254 -28.57006836 2.25878906 C-19.0801949 0.33108787 -9.65373888 -0.03071082 0 0 Z M-13.57006836 55.25878906 C-13.57006836 114.65878906 -13.57006836 174.05878906 -13.57006836 235.25878906 C33.28993164 235.25878906 80.14993164 235.25878906 128.42993164 235.25878906 C128.42993164 175.85878906 128.42993164 116.45878906 128.42993164 55.25878906 C81.56993164 55.25878906 34.70993164 55.25878906 -13.57006836 55.25878906 Z " fill="#FFFFFF" transform="translate(983.570068359375,232.7412109375)"/>
<path d="M0 0 C1.16982422 1.10408203 1.16982422 1.10408203 2.36328125 2.23046875 C3.02972656 2.83246094 3.69617188 3.43445313 4.3828125 4.0546875 C30.32571693 28.41248576 44.51404704 67.24005673 46.36328125 102.23046875 C46.47753701 106.70578825 46.50772491 111.17735332 46.49365234 115.65405273 C46.48837025 117.63459695 46.49409087 119.61516068 46.5 121.59570312 C46.50386836 129.23084974 46.27143674 136.8320298 45.87890625 144.45703125 C44.1223268 178.86781162 45.95729706 211.75336829 51.80859375 245.67578125 C58.32730164 283.54783995 55.91523698 320.42915719 33.671875 352.98828125 C15.68478527 378.24933789 -10.17414289 395.20294397 -40.88964844 400.62841797 C-71.82010492 405.43727437 -103.64252213 399.50863947 -129.32421875 381.10546875 C-157.11108306 360.48077595 -172.154868 331.00326951 -177.63671875 297.23046875 C-180.0624838 280.43852233 -178.24539446 264.11505231 -175.76171875 247.48046875 C-172.89800407 227.94864071 -170.24161741 208.50904206 -170.32421875 188.73046875 C-170.32471222 188.05423462 -170.32520569 187.37800049 -170.32571411 186.68127441 C-170.35941283 171.19414678 -171.71466754 155.83894717 -173.10290527 140.42553711 C-174.29009444 127.0834328 -175.00282397 113.62659157 -174.63671875 100.23046875 C-174.59417969 98.41095703 -174.59417969 98.41095703 -174.55078125 96.5546875 C-173.275568 65.85848277 -161.38720766 36.67641077 -141.63671875 13.23046875 C-140.46882813 11.81701172 -140.46882813 11.81701172 -139.27734375 10.375 C-123.06768974 -8.40383119 -99.44325159 -22.48445559 -74.63671875 -25.76953125 C-73.80527344 -25.89070312 -72.97382812 -26.011875 -72.1171875 -26.13671875 C-44.50258962 -29.45208775 -19.89198443 -18.46891867 0 0 Z M-132.96923828 24.82373047 C-135.81882278 28.44384817 -138.29178671 32.27196546 -140.63671875 36.23046875 C-141.04374023 36.91705566 -141.45076172 37.60364258 -141.87011719 38.31103516 C-154.05484195 59.28149068 -160.05475579 80.34718701 -160.01171875 104.54296875 C-160.01316895 105.3801947 -160.01461914 106.21742065 -160.01611328 107.08001709 C-160.01263187 125.72343244 -158.60685473 144.25550616 -157.06005859 162.82543945 C-155.82298269 177.7211371 -155.2059014 192.1724337 -156.32421875 207.10546875 C-156.40599365 208.21535156 -156.48776855 209.32523438 -156.57202148 210.46875 C-157.65821261 224.00198124 -159.4448136 237.4545334 -161.1980896 250.91438293 C-165.721541 285.68887751 -162.91313748 319.89609409 -140.82421875 348.91796875 C-123.94674532 370.41356051 -100.70259929 383.61689054 -73.63671875 387.23046875 C-69.54849632 387.51186066 -65.48369718 387.56484043 -61.38671875 387.54296875 C-60.29061279 387.5380542 -59.19450684 387.53313965 -58.06518555 387.52807617 C-30.79308849 387.13551258 -7.76977311 375.9181894 11.61328125 357.29296875 C32.65110923 335.62566246 41.62772649 305.02066468 41.54858398 275.35766602 C41.33903115 268.4233627 40.10135871 261.5930679 38.96981812 254.76113892 C38.3991013 251.31443499 37.85268454 247.86400043 37.30451965 244.41365051 C37.03295549 242.70624985 36.76017481 240.99904219 36.48612976 239.29203796 C35.43169129 232.71916443 34.44826616 226.13927353 33.55078125 219.54296875 C33.43951904 218.74568359 33.32825684 217.94839844 33.21362305 217.12695312 C31.58550697 205.03311555 31.19899724 193.0409565 31.23828125 180.85546875 C31.2396106 179.65363449 31.2396106 179.65363449 31.2409668 178.42752075 C31.25251834 169.49362167 31.33982095 160.58883423 31.86328125 151.66796875 C32.42982829 141.57034159 32.5419009 131.46950408 32.59545898 121.35818481 C32.60712957 119.47376439 32.62402013 117.58936734 32.64672852 115.70504761 C33.00662135 84.10000948 24.70698104 53.76736972 5.36328125 28.23046875 C4.75355469 27.40160156 4.14382812 26.57273437 3.515625 25.71875 C-10.64866301 7.19174494 -29.94639878 -8.28969409 -53.63671875 -11.76953125 C-85.39552883 -15.07864575 -113.04441255 1.00009311 -132.96923828 24.82373047 Z " fill="#FFFFFF" transform="translate(198.63671875,234.76953125)"/>
<path d="M0 0 C1.12519043 -0.02763428 2.25038086 -0.05526855 3.40966797 -0.08374023 C9.99116619 -0.01007039 14.20964697 0.7579561 19.21191406 5.171875 C30.42732008 16.67923762 32.01658477 35.39943909 31.84545898 50.70458984 C31.75099873 53.71813766 31.52520912 56.69214562 31.26171875 59.6953125 C27.96195311 101.66939971 36.72789165 136.19604661 64.25 168.51123047 C67.32537407 172.01294463 70.51666544 175.39329496 73.75 178.75 C74.38550781 179.43707031 75.02101563 180.12414062 75.67578125 180.83203125 C78.58699489 183.90386358 81.49844394 186.33604253 85.0625 188.625 C90.49663063 192.11640602 95.08216303 196.30253302 99.75 200.75 C100.2557959 201.22856445 100.7615918 201.70712891 101.28271484 202.20019531 C109.07390713 209.61427966 116.04015614 217.38489047 122.45898438 226.01464844 C123.30007113 227.14521664 124.14744514 228.27114296 125.00195312 229.39160156 C148.12740709 259.71856378 160.86195185 293.48270622 162.5625 331.5 C162.64213989 333.14210449 162.64213989 333.14210449 162.72338867 334.81738281 C162.93161284 340.88723417 162.56576899 345.94514779 160.75 351.75 C157 352.875 157 352.875 154.75 351.75 C154.81783691 351.08500488 154.88567383 350.42000977 154.95556641 349.73486328 C158.79449929 310.21806408 148.91483751 274.00948322 125.75 241.75 C125.30785156 241.1327002 124.86570312 240.51540039 124.41015625 239.87939453 C118.42362555 231.57085243 112.18193854 223.72526867 105.125 216.30078125 C102.75 213.75 102.75 213.75 100.6640625 211.12109375 C98.93031186 208.97336592 97.22852392 207.27233079 95.125 205.5 C92.0125482 202.84204671 88.96087327 200.13400836 85.9375 197.375 C82.41989182 194.19240212 78.82252949 191.15882038 75.125 188.1875 C48.40778113 166.46099758 27.67936121 133.01302859 22.75 98.75 C21.86310752 89.96083416 21.66762763 81.17363668 21.57421875 72.34765625 C21.56221436 71.33309357 21.55020996 70.31853088 21.5378418 69.27322388 C21.48944988 65.06242752 21.4419006 60.85192178 21.42407227 56.64086914 C21.93697473 35.04021811 21.93697473 35.04021811 13.75 15.75 C13.75 15.09 13.75 14.43 13.75 13.75 C5.73785669 9.59555532 -1.31699865 8.85479517 -10.25 9.75 C-18.67916935 12.48881528 -25.09282371 21.16707736 -29.125 28.6875 C-37.56866452 47.25219001 -32.25033828 66.06152108 -27.25 84.75 C-26.45694694 87.74023145 -25.66541294 90.73083742 -24.87744141 93.72241211 C-24.40336101 95.5118272 -23.92224191 97.2994065 -23.43115234 99.08422852 C-22.65651344 101.96290965 -21.9454086 104.85107549 -21.25 107.75 C-21.08170685 108.4315213 -20.9134137 109.1130426 -20.74002075 109.81521606 C-17.38445488 123.67576288 -16.72626471 136.84438114 -16.9375 151.0625 C-16.94903995 153.06053741 -16.95881052 155.05858585 -16.96679688 157.05664062 C-17.03335587 167.65525965 -17.36632764 178.186429 -18.25 188.75 C-16.579375 188.7190625 -16.579375 188.7190625 -14.875 188.6875 C-11.25 188.75 -11.25 188.75 -9.25 189.75 C-9.91 193.71 -10.57 197.67 -11.25 201.75 C-14.80554534 202.93518178 -16.58927461 202.38952431 -20.25 201.75 C-22.54083289 201.68477127 -24.83335794 201.6641159 -27.125 201.6875 C-28.27742188 201.69652344 -29.42984375 201.70554688 -30.6171875 201.71484375 C-31.48601562 201.72644531 -32.35484375 201.73804688 -33.25 201.75 C-33.44486475 195.61176032 -33.08177741 189.7137342 -32.3125 183.625 C-30.7373616 170.90005241 -30.13785095 158.25405795 -30 145.4375 C-29.97856934 144.37160645 -29.95713867 143.30571289 -29.93505859 142.20751953 C-29.86371803 124.57583224 -34.27988379 107.77038519 -38.875 90.875 C-39.6313243 88.05882696 -40.38493663 85.24194296 -41.13754272 82.42477417 C-41.60109677 80.69333632 -42.06727373 78.96259779 -42.53652954 77.23269653 C-44.82889615 68.74625641 -45.5238293 61.06104815 -45.625 52.25 C-45.66238281 51.04601563 -45.69976562 49.84203125 -45.73828125 48.6015625 C-45.87274679 34.70678974 -40.70649001 22.12644657 -31.4453125 11.72265625 C-29.48103465 9.86026003 -27.46270604 8.30780706 -25.25 6.75 C-24.50363281 6.16992188 -23.75726563 5.58984375 -22.98828125 4.9921875 C-15.68324456 0.29687244 -8.50907832 0.12233499 0 0 Z M-19.25 191.75 C-18.25 194.75 -18.25 194.75 -18.25 194.75 Z " fill="#FFFFFF" transform="translate(166.25,-0.75)"/>
<path d="M0 0 C3.79442329 0.64433603 4.21928037 1.14888068 6.5 4.0625 C10.64125269 10.2254666 13.13582182 16.01538335 12.3125 23.5625 C9.87083124 31.46201656 4.4849771 36.84535428 -1.8125 42 C-6.71264013 46.22327253 -10.17188259 50.75778625 -11.05859375 57.30078125 C-11.17472038 62.23957839 -10.51164828 66.38623295 -9.14453125 71.13671875 C-7.14492654 81.75000529 -8.08575318 91.72658693 -13.765625 100.9296875 C-16.84953924 105.19084024 -20.76602324 107.50389427 -25.25 110.125 C-30.86743864 113.42062796 -34.29633281 115.9860938 -37.6875 121.5625 C-40.3125 122.0625 -40.3125 122.0625 -42.6875 121.5625 C-44.6875 119.5625 -44.6875 119.5625 -44.69140625 117.609375 C-43.66996782 112.29427943 -42.2794721 109.31364265 -37.953125 106.0234375 C-35.21481764 104.25770138 -32.40032664 102.66314606 -29.5625 101.0625 C-23.82230986 97.81523349 -19.84016608 95.02049825 -17.6875 88.5625 C-17.35513656 82.91232157 -17.01352421 77.08619761 -18.6875 71.625 C-21.63538771 61.2091301 -20.06018365 52.19397588 -14.890625 42.83203125 C-11.43474834 37.70336323 -7.265606 33.67690716 -2.6875 29.5625 C1.04695295 26.12905459 1.04695295 26.12905459 3.375 21.75 C3.27201508 16.49776898 0.79883108 12.42041384 -2.4375 8.375 C-4.08018309 5.99310952 -3.99356655 4.39361562 -3.6875 1.5625 C-2.6875 0.5625 -2.6875 0.5625 0 0 Z " fill="#FFFFFF" transform="translate(121.6875,236.4375)"/>
<path d="M0 0 C0 1.65 0 3.3 0 5 C-0.65484375 5.28230469 -1.3096875 5.56460938 -1.984375 5.85546875 C-9.12791755 9.29607328 -13.59966539 13.50017135 -18.70776367 19.37280273 C-23.8774537 25.21786996 -29.47046073 28.69024451 -37.484375 29.23828125 C-46.51780041 29.46930421 -53.87719584 28.47554218 -62.56640625 25.91015625 C-70.59762234 23.7812901 -77.21353567 24.1682416 -84.51171875 28.2421875 C-90.14167486 32.21939354 -94.85187271 37.2739906 -99.10546875 42.671875 C-102.58051256 46.94223811 -106.52318847 49.35566923 -112 50 C-112 50.66 -112 51.32 -112 52 C-113.65 51.67 -115.3 51.34 -117 51 C-117.625 49.1875 -117.625 49.1875 -118 47 C-116 44 -116 44 -112.625 42.625 C-106.80051117 39.90337522 -103.09222838 34.91356031 -98.89453125 30.20703125 C-91.87568421 22.3460141 -85.02071244 16.79474814 -74.16015625 15.921875 C-66.42727197 16.11304643 -58.42481128 17.58656529 -50.94042969 19.53662109 C-48.1586802 20.20090903 -45.48095692 20.21005655 -42.625 20.25 C-41.52414063 20.27578125 -40.42328125 20.3015625 -39.2890625 20.328125 C-31.03832372 19.50501092 -26.68625699 13.91586009 -21.38671875 8.18164062 C-15.65702882 2.19035016 -8.26072063 -3.79546624 0 0 Z " fill="#FFFFFF" transform="translate(215,524)"/>
<path d="M0 0 C3.1875 0.4375 3.1875 0.4375 5.26171875 2.90234375 C8.09141546 7.47567971 8.68004584 12.59011834 9.609375 17.8046875 C10.60550223 22.90554588 11.85441329 26.39739489 15.1875 30.4375 C18.62125299 31.58208433 21.7727187 31.82618793 25.375 32.1875 C33.23056197 33.13125783 38.07000078 35.1514873 43.5 40.875 C46.1478933 46.46499698 47.01530656 52.39403563 48.1875 58.4375 C49.27169282 63.39326783 49.27169282 63.39326783 52.1875 67.4375 C51.61931818 73.00568182 51.61931818 73.00568182 50.1875 74.4375 C47.875 74.8125 47.875 74.8125 45.1875 74.4375 C39.31295538 68.73079952 38.61378671 60.91123405 37.5078125 53.18359375 C36.76313493 48.70706611 35.84970246 46.19443893 32.1875 43.4375 C28.96615172 42.36371724 26.38550179 42.26391273 23 42.125 C15.87374377 41.60917967 11.02335453 40.19670981 5.875 35.1875 C1.57689498 28.1831807 0.34860542 20.70090174 -1.06640625 12.73046875 C-1.63313571 9.31965643 -1.63313571 9.31965643 -3.8125 6.4375 C-4 3.8125 -4 3.8125 -3.8125 1.4375 C-2.8125 0.4375 -2.8125 0.4375 0 0 Z " fill="#FFFFFF" transform="translate(154.8125,357.5625)"/>
<path d="M0 0 C5.4717957 2.34653857 8.49184177 5.91649333 10.74609375 11.3828125 C12.24546852 16.71909662 12.11950971 21.42838832 9.890625 26.52734375 C7.19505555 30.89729423 3.39946306 33.55612785 -1.12890625 35.8203125 C-6.74876991 36.83188796 -11.94714654 36.32085557 -17.06640625 33.6953125 C-21.35873265 30.58127178 -23.584611 27.39069825 -25.25390625 22.3828125 C-26.03786964 15.86692009 -25.04063954 10.78717942 -21.25390625 5.3828125 C-14.9733729 -0.58369419 -8.4316789 -2.30884795 0 0 Z M-14.25390625 10.3828125 C-16.86185266 13.96873881 -17.36303733 15.59161217 -16.75390625 20.0078125 C-15.05075235 23.83990877 -13.91118054 25.35099345 -10.25390625 27.3828125 C-5.96820825 27.99505507 -4.02756225 27.88737076 -0.37890625 25.5078125 C2.34654266 22.78236359 2.69279244 21.94780641 3.05859375 18.0703125 C2.68829228 13.70075518 1.98880095 12.29293435 -1.25390625 9.3828125 C-6.57458336 7.01806712 -9.49554376 6.92218524 -14.25390625 10.3828125 Z " fill="#FFFFFF" transform="translate(81.25390625,475.6171875)"/>
<path d="M0 0 C3.81854877 2.66808857 6.34230662 5.81988862 7.828125 10.27734375 C8.58050459 16.93052897 8.34295741 22.12643646 4.30078125 27.62109375 C-0.06026079 32.52582008 -4.33505347 33.97682347 -10.7109375 34.37890625 C-16.4833499 34.14067971 -21.12162835 31.21508355 -25.171875 27.27734375 C-28.90871981 21.99421834 -28.84180893 16.51145114 -28.171875 10.27734375 C-26.18284014 4.31023918 -22.23439533 0.9697892 -16.796875 -2.03515625 C-10.45093688 -3.69718766 -5.66469431 -3.13342343 0 0 Z M-17.171875 8.27734375 C-19.77035521 11.29493367 -20.171875 12.77322991 -20.171875 16.77734375 C-18.94979702 21.05461666 -17.81372481 22.72030027 -14.171875 25.27734375 C-11.33618833 25.98196892 -9.00756167 25.98196892 -6.171875 25.27734375 C-2.53002519 22.72030027 -1.39395298 21.05461666 -0.171875 16.77734375 C-0.171875 12.77322991 -0.57339479 11.29493367 -3.171875 8.27734375 C-9.08130754 4.77992449 -11.26244246 4.77992449 -17.171875 8.27734375 Z " fill="#FFFFFF" transform="translate(155.171875,564.72265625)"/>
<path d="M0 0 C3.3950652 2.73491364 6.28344512 5.87939023 8.25 9.8125 C8.77779267 16.0242137 8.99403643 21.570849 5.25 26.8125 C0.99292089 30.97497736 -2.81696476 33.7558076 -8.91796875 33.84375 C-14.18317224 33.49097255 -17.66075765 32.3311504 -21.75 28.8125 C-25.88464078 23.33689465 -27.63354902 18.69681946 -26.75 11.8125 C-24.99994981 6.55283829 -22.53153024 2.77249491 -17.75 -0.1875 C-11.83952997 -3.00840615 -5.92788969 -2.55977055 0 0 Z M-16.75 9.8125 C-18.31935594 12.95121188 -18.10201103 15.35105822 -17.75 18.8125 C-15.83333333 21.89583333 -15.83333333 21.89583333 -12.75 23.8125 C-8.62151069 24.47600721 -6.55066382 24.24764338 -2.875 22.25 C-0.03882131 18.99673621 0.39842915 17.11694539 0.25 12.8125 C-2.16666816 8.73437248 -3.71839441 7.14408751 -8.25 5.6875 C-12.47676136 5.83845576 -13.84418524 6.8212201 -16.75 9.8125 Z " fill="#FFFFFF" transform="translate(198.75,347.1875)"/>
<path d="M0 0 C3.4145108 2.78458009 5.9396884 5.35680984 6.86328125 9.76953125 C7.43906645 15.50605788 7.18014875 19.85141738 3.86328125 24.76953125 C-1.49769102 29.60748183 -4.97533541 30.18145099 -12.08203125 30.11328125 C-16.54762657 29.61075901 -19.15016092 28.07046358 -22.13671875 24.76953125 C-25.49801848 19.99865421 -25.86909731 15.42512127 -25.13671875 9.76953125 C-23.31244969 4.49942063 -20.56420189 1.93201921 -16.13671875 -1.23046875 C-10.92391078 -2.99679211 -4.7998215 -2.7640654 0 0 Z M-15.13671875 9.76953125 C-16.39001659 12.62242823 -16.39001659 12.62242823 -16.13671875 15.76953125 C-14.72793779 18.75969555 -14.72793779 18.75969555 -12.13671875 20.76953125 C-9.13671875 21.60286458 -9.13671875 21.60286458 -6.13671875 20.76953125 C-3.47236623 18.31552235 -2.29696479 16.73100749 -1.69921875 13.14453125 C-2.22692893 10.27981883 -2.74784564 9.41702995 -5.13671875 7.76953125 C-9.40559207 6.19678845 -11.69983306 6.8099908 -15.13671875 9.76953125 Z " fill="#FFFFFF" transform="translate(84.13671875,301.23046875)"/>
<path d="M0 0 C4.12441356 2.68983493 7.09935137 5.26253929 8.51171875 10.01953125 C9.36150371 15.38322774 8.7085621 19.12192808 5.875 23.875 C2.08211067 27.86425145 -1.29196539 29.6885897 -6.8125 30.25 C-11.85360109 30.1755926 -15.37230356 28.1359638 -19.125 24.875 C-22.52328466 20.2023586 -22.9736144 15.47390421 -22.125 9.875 C-20.7121439 5.3431974 -18.44890499 2.73461034 -14.3125 0.4375 C-9.26531923 -1.73494144 -5.2063189 -1.8742748 0 0 Z M-11.9375 9.0625 C-13.51361317 11.46814642 -14.05607581 12.98018392 -14.125 15.875 C-12.43189723 18.63413044 -11.08163052 20.38125521 -8.1875 21.875 C-5.02038025 21.875 -3.53094758 20.89079392 -1.125 18.875 C0.12829784 16.02210302 0.12829784 16.02210302 -0.125 12.875 C-1.53378096 9.8848357 -1.53378096 9.8848357 -4.125 7.875 C-7.36208907 7.34649566 -9.16292509 7.24467506 -11.9375 9.0625 Z " fill="#FFFFFF" transform="translate(177.125,268.125)"/>
<path d="M0 0 C3.97824426 2.09470186 6.49872573 4.05507076 8.02734375 8.28125 C8.67829448 13.60277223 8.67987245 17.87580356 6.40234375 22.78125 C2.53808091 26.8488951 -0.91467298 28.4291744 -6.47265625 28.71875 C-10.94963566 28.56047295 -13.53424439 27.22846017 -16.97265625 24.28125 C-19.87494043 20.97865076 -20.88824678 18.39967552 -21.22265625 13.96875 C-20.86163854 8.6437388 -19.38733867 5.58983123 -15.47265625 1.96875 C-10.78351024 -1.19642356 -5.34016614 -1.9457239 0 0 Z M-10.22265625 9.40625 C-12.25573803 11.2276541 -12.25573803 11.2276541 -12.41015625 14.28125 C-12.18003482 17.20858832 -12.18003482 17.20858832 -10.84765625 19.15625 C-8.06159583 20.82788625 -6.15276763 20.74501624 -2.97265625 20.28125 C-0.8750146 18.76230194 -0.8750146 18.76230194 0.02734375 16.28125 C0.03409301 13.15444901 0.03409301 13.15444901 -0.97265625 10.28125 C-4.45519932 7.95955462 -6.39549338 7.49266857 -10.22265625 9.40625 Z " fill="#FFFFFF" transform="translate(177.97265625,510.71875)"/>
<path d="M0 0 C3.06458538 2.04305692 3.82153128 3.44079802 4.9375 6.9375 C5.0128328 10.62880732 4.24574926 12.1126081 2 15 C-1.51253146 17.34168764 -2.86469356 17.49623677 -7 17 C-10.74785043 14.91786087 -11.79482295 13.7052961 -13 9.5625 C-13 5.62891627 -12.41868244 4.04574825 -10 1 C-6.79729456 -0.60135272 -3.47536616 -0.48861584 0 0 Z " fill="#FFFFFF" transform="translate(213,462)"/>
<path d="M0 0 C2.30760361 2.59605406 1.99668242 4.06303397 1.8125 7.5625 C1 11 1 11 -0.0625 12.9375 C-3.27905997 14.70141999 -6.49385409 14.73924763 -10 14 C-12.5625 11.9375 -12.5625 11.9375 -14 9 C-13.93822484 5.41704089 -13.76840164 3.04782042 -11.625 0.125 C-7.42822284 -2.78046111 -4.52007081 -1.72584522 0 0 Z " fill="#FFFFFF" transform="translate(84,542)"/>
<path d="M0 0 C2.31282587 3.46923881 2.42478586 4.92205575 2 9 C0.9375 10.875 0.9375 10.875 -1 12 C-4.5 12.4375 -4.5 12.4375 -8 12 C-10 10.4375 -10 10.4375 -11 8 C-10.9375 4.375 -10.9375 4.375 -10 1 C-6.87287515 -1.77966654 -3.83768681 -1.08456366 0 0 Z " fill="#FFFFFF" transform="translate(174,428)"/>
<path d="M0 0 C2.8125 0.9375 2.8125 0.9375 4.8125 3.9375 C5.13412076 7.0250593 5.29974515 9.07765561 3.75 11.8125 C0.67178089 13.59985303 -1.71656068 13.37136742 -5.1875 12.9375 C-7.56216282 10.86924529 -8.07435647 9.50321765 -8.6875 6.4375 C-8.1875 3.9375 -8.1875 3.9375 -6.0625 1.5625 C-3.1875 -0.0625 -3.1875 -0.0625 0 0 Z " fill="#FFFFFF" transform="translate(165.1875,453.0625)"/>
<path d="M0 0 C2.37466282 2.06825471 2.88685647 3.43428235 3.5 6.5 C3 9 3 9 0.875 11.375 C-2 13 -2 13 -5.1875 12.9375 C-8 12 -8 12 -10 9 C-10.32162076 5.9124407 -10.48724515 3.85984439 -8.9375 1.125 C-5.85928089 -0.66235303 -3.47093932 -0.43386742 0 0 Z " fill="#FFFFFF" transform="translate(121,452)"/>
<path d="M0 0 C2.8125 0.9375 2.8125 0.9375 4.8125 3.9375 C5.13412076 7.0250593 5.29974515 9.07765561 3.75 11.8125 C0.67178089 13.59985303 -1.71656068 13.37136742 -5.1875 12.9375 C-7.56216282 10.86924529 -8.07435647 9.50321765 -8.6875 6.4375 C-8.1875 3.9375 -8.1875 3.9375 -6.0625 1.5625 C-3.1875 -0.0625 -3.1875 -0.0625 0 0 Z " fill="#FFFFFF" transform="translate(139.1875,421.0625)"/>
<path d="M0 0 C2.375 2.125 2.375 2.125 4 5 C3.9375 8.1875 3.9375 8.1875 3 11 C-0.46923881 13.31282587 -1.92205575 13.42478586 -6 13 C-7.875 11.9375 -7.875 11.9375 -9 10 C-9.4375 6.5 -9.4375 6.5 -9 3 C-6.3773336 -0.01120957 -3.90597484 -0.78119497 0 0 Z " fill="#FFFFFF" transform="translate(150,314)"/>
<path d="M0 0 C2.4375 1.625 2.4375 1.625 4 4 C4 7.51359068 3.6312066 9.27528132 1.3125 11.9375 C-1.86221916 13.39615475 -3.69878201 13.00471852 -7 12 C-9.31282587 8.53076119 -9.42478586 7.07794425 -9 3 C-6.79244709 -0.67925486 -4.01747809 -0.57392544 0 0 Z " fill="#FFFFFF" transform="translate(150,484)"/>
<path d="M0 0 C2.4375 1.625 2.4375 1.625 4 4 C4 7.51359068 3.6312066 9.27528132 1.3125 11.9375 C-1.86221916 13.39615475 -3.69878201 13.00471852 -7 12 C-9.31282587 8.53076119 -9.42478586 7.07794425 -9 3 C-6.79244709 -0.67925486 -4.01747809 -0.57392544 0 0 Z " fill="#FFFFFF" transform="translate(182,458)"/>
<path d="M0 0 C2.9375 1 2.9375 1 4.875 2.6875 C6.33365475 5.86221916 5.94221852 7.69878201 4.9375 11 C1.46826119 13.31282587 0.01544425 13.42478586 -4.0625 13 C-5.9375 11.875 -5.9375 11.875 -7.0625 10 C-7.60650387 6.34740261 -7.50024093 4.6566114 -5.4375 1.5625 C-3.0625 0 -3.0625 0 0 0 Z " fill="#FFFFFF" transform="translate(148.0625,453)"/>
<path d="M0 0 C2.4375 1.625 2.4375 1.625 4 4 C4 7.51359068 3.6312066 9.27528132 1.3125 11.9375 C-1.86221916 13.39615475 -3.69878201 13.00471852 -7 12 C-9.31282587 8.53076119 -9.42478586 7.07794425 -9 3 C-6.79244709 -0.67925486 -4.01747809 -0.57392544 0 0 Z " fill="#FFFFFF" transform="translate(135,452)"/>
<path d="M0 0 C1.9375 1.6875 1.9375 1.6875 3 4 C2.875 7.125 2.875 7.125 2 10 C-1.46923881 12.31282587 -2.92205575 12.42478586 -7 12 C-8.875 10.9375 -8.875 10.9375 -10 9 C-10.4375 5.5 -10.4375 5.5 -10 2 C-7.0239502 -1.66283052 -4.29996319 -1.37232868 0 0 Z " fill="#FFFFFF" transform="translate(128,434)"/>
<path d="M0 0 C2 3 2 3 1.75 6.0625 C1 9 1 9 -1 11 C-7.05240175 11.55021834 -7.05240175 11.55021834 -9.9375 9.875 C-11.48724515 7.14015561 -11.32162076 5.0875593 -11 2 C-7.67085721 -2.99371418 -5.0918279 -2.16673528 0 0 Z " fill="#FFFFFF" transform="translate(178,475)"/>
<path d="M0 0 C2 1.625 2 1.625 3 4 C3 7.0625 3 7.0625 2 10 C-0.1875 12 -0.1875 12 -3 13 C-6.25 12.3125 -6.25 12.3125 -9 11 C-10.39935013 8.20129973 -10.25265405 6.09501208 -10 3 C-7.72375139 -1.01690931 -4.20725277 -0.5259066 0 0 Z " fill="#FFFFFF" transform="translate(145,438)"/>
<path d="M0 0 C1.875 1.0625 1.875 1.0625 3 3 C3.5 6.5 3.5 6.5 3 10 C0.875 12.0625 0.875 12.0625 -2 13 C-5.1875 12.5625 -5.1875 12.5625 -8 11 C-9.5 8.125 -9.5 8.125 -10 5 C-9.25 2.6875 -9.25 2.6875 -8 1 C-5.20129973 -0.39935013 -3.09501208 -0.25265405 0 0 Z " fill="#FFFFFF" transform="translate(160,467)"/>
<path d="M0 0 C1.875 1.0625 1.875 1.0625 3 3 C3.5 6.5 3.5 6.5 3 10 C0.875 12.0625 0.875 12.0625 -2 13 C-5.1875 12.5625 -5.1875 12.5625 -8 11 C-9.5 8.125 -9.5 8.125 -10 5 C-9.25 2.6875 -9.25 2.6875 -8 1 C-5.20129973 -0.39935013 -3.09501208 -0.25265405 0 0 Z " fill="#FFFFFF" transform="translate(160,438)"/>
<path d="M0 0 C1.875 1.0625 1.875 1.0625 3 3 C3.4375 6.5 3.4375 6.5 3 10 C1.375 12 1.375 12 -1 13 C-4.0625 13 -4.0625 13 -7 12 C-9 9.8125 -9 9.8125 -10 7 C-9.3125 3.75 -9.3125 3.75 -8 1 C-5.20129973 -0.39935013 -3.09501208 -0.25265405 0 0 Z " fill="#FFFFFF" transform="translate(125,469)"/>
<path d="M0 0 C2 2 2 2 2.3125 4.9375 C2 8 2 8 0.9375 9.875 C-2.14071911 11.66235303 -4.52906068 11.43386742 -8 11 C-10.42061048 8.89172636 -10.9127007 7.59654522 -11.375 4.4375 C-10.93061172 1.54897621 -10.3218356 0.71987822 -8 -1 C-4.34765818 -2.21744727 -3.37046678 -1.64202228 0 0 Z " fill="#FFFFFF" transform="translate(145,469)"/>
<path d="M0 0 C2 1.625 2 1.625 3 4 C2.77962372 7.67293796 2.63033454 9.36966546 0 12 C-6.05240175 12.55021834 -6.05240175 12.55021834 -8.9375 10.875 C-10.50422245 8.11019567 -10.38976435 6.11811483 -10 3 C-7.72375139 -1.01690931 -4.20725277 -0.5259066 0 0 Z " fill="#FFFFFF" transform="translate(110,252)"/>
<path d="M0 0 C2.0625 2.125 2.0625 2.125 3 5 C1.8 10.2 1.8 10.2 0 12 C-5.8410596 12.37086093 -5.8410596 12.37086093 -8 12 C-10.31282587 8.53076119 -10.42478586 7.07794425 -10 3 C-7.72623967 -1.01251823 -4.20314565 -0.60044938 0 0 Z " fill="#FFFFFF" transform="translate(166,482)"/>
<path d="M0 0 C2 1.625 2 1.625 3 4 C2.77962372 7.67293796 2.63033454 9.36966546 0 12 C-6.05240175 12.55021834 -6.05240175 12.55021834 -8.9375 10.875 C-10.50422245 8.11019567 -10.38976435 6.11811483 -10 3 C-7.72375139 -1.01690931 -4.20725277 -0.5259066 0 0 Z " fill="#FFFFFF" transform="translate(136,482)"/>
<path d="M0 0 C3.5625 0.3125 3.5625 0.3125 5.5 1.4375 C7.06672245 4.20230433 6.95226435 6.19438517 6.5625 9.3125 C5.5 11.1875 5.5 11.1875 3.5625 12.3125 C0.0625 12.75 0.0625 12.75 -3.4375 12.3125 C-5.4375 10.6875 -5.4375 10.6875 -6.4375 8.3125 C-6.12371717 3.0827861 -5.61102633 0.5100933 0 0 Z " fill="#FFFFFF" transform="translate(154.4375,420.6875)"/>
<path d="M0 0 C2 2 2 2 2.3125 5.4375 C2 9 2 9 0.875 10.9375 C-1.88980433 12.50422245 -3.88188517 12.38976435 -7 12 C-8.875 10.9375 -8.875 10.9375 -10 9 C-10.4375 5.5 -10.4375 5.5 -10 2 C-7.00303875 -1.6885677 -4.34072074 -1.22672543 0 0 Z " fill="#FFFFFF" transform="translate(181,443)"/>
<path d="M0 0 C2.99220268 1.36370299 5.29026529 2.94908083 7.75 5.125 C8.67039062 5.93324219 8.67039062 5.93324219 9.609375 6.7578125 C10.06828125 7.16773438 10.5271875 7.57765625 11 8 C9.46126823 11.71860179 8.52488612 12.35633541 5 15 C2.03 12.36 -0.94 9.72 -4 7 C-3.04065919 3.16263678 -2.76390737 2.40339772 0 0 Z " fill="#FFFFFF" transform="translate(50,226)"/>
<path d="M0 0 C4.3124594 1.59720719 6.42143673 4.31633819 9 8 C9 10.81866156 8.29952706 11.66452969 6.4375 13.75 C5.7259375 14.36875 5.7259375 14.36875 5 15 C0.70761377 13.34908222 -1.8793915 10.26245434 -5 7 C-3.70700306 4.11562221 -2.34058637 2.12780579 0 0 Z " fill="#FFFFFF" transform="translate(61,216)"/>
<path d="M0 0 C3 1 3 1 5 4 C4.82413025 6.83660892 4.13218237 7.86250798 2.15234375 9.921875 C1.05599609 10.82679688 1.05599609 10.82679688 -0.0625 11.75 C-1.16271484 12.67039062 -1.16271484 12.67039062 -2.28515625 13.609375 C-2.85105469 14.06828125 -3.41695312 14.5271875 -4 15 C-6.5625 12.75 -6.5625 12.75 -9 10 C-8.85200236 7.2428587 -8.21554454 6.21506125 -6.2578125 4.26171875 C-5.20207031 3.48248047 -5.20207031 3.48248047 -4.125 2.6875 C-3.42632812 2.15511719 -2.72765625 1.62273438 -2.0078125 1.07421875 C-1.34523438 0.71972656 -0.68265625 0.36523438 0 0 Z " fill="#FFFFFF" transform="translate(39,596)"/>
<path d="M0 0 C1.6045556 0.14148989 3.20863767 0.28835686 4.8125 0.4375 C5.70582031 0.51871094 6.59914063 0.59992187 7.51953125 0.68359375 C10 1 10 1 13 2 C12.67 4.97 12.34 7.94 12 11 C7.71 10.01 3.42 9.02 -1 8 C-0.67 5.36 -0.34 2.72 0 0 Z " fill="#FFFFFF" transform="translate(256,542)"/>
<path d="M0 0 C2.5564825 1.13400391 3.40508397 2.34662891 4.8828125 4.703125 C5.33398438 5.39019531 5.78515625 6.07726562 6.25 6.78515625 C7.0078125 8.890625 7.0078125 8.890625 6.390625 11.02734375 C5.0078125 12.890625 5.0078125 12.890625 1.0078125 14.890625 C-1.6321875 11.590625 -4.2721875 8.290625 -6.9921875 4.890625 C-2.57390116 -0.14131222 -2.57390116 -0.14131222 0 0 Z " fill="#FFFFFF" transform="translate(72.9921875,208.109375)"/>
<path d="M0 0 C1.6875 2.3125 1.6875 2.3125 3 5 C1.78836152 8.63491543 0.89228938 8.95246215 -2.375 10.75 C-3.16648437 11.19859375 -3.95796875 11.6471875 -4.7734375 12.109375 C-7 13 -7 13 -10 12 C-11.64820195 9.39757586 -12 8.13751221 -12 5 C-10.37750059 4.16180842 -8.75191503 3.3295884 -7.125 2.5 C-6.22007813 2.0359375 -5.31515625 1.571875 -4.3828125 1.09375 C-2 0 -2 0 0 0 Z " fill="#FFFFFF" transform="translate(28,573)"/>
<path d="M0 0 C1.35439668 2.70879335 1.06501451 5.00933268 1 8 C-0.60256108 8.50512244 -2.20711792 9.00391627 -3.8125 9.5 C-4.70582031 9.7784375 -5.59914063 10.056875 -6.51953125 10.34375 C-9 11 -9 11 -12 11 C-12.33 8.36 -12.66 5.72 -13 3 C-4.57142857 -0.42857143 -4.57142857 -0.42857143 0 0 Z " fill="#FFFFFF" transform="translate(19,549)"/>
<path d="M0 0 C0.66 2.64 1.32 5.28 2 8 C-7.41002278 11.44419134 -7.41002278 11.44419134 -12 11 C-12.33 8.69 -12.66 6.38 -13 4 C-11.39850114 3.32694982 -9.79368971 2.66177773 -8.1875 2 C-7.29417969 1.62875 -6.40085938 1.2575 -5.48046875 0.875 C-3 0 -3 0 0 0 Z " fill="#FFFFFF" transform="translate(257,294)"/>
<path d="M0 0 C3.71860179 1.53873177 4.35633541 2.47511388 7 6 C4.36 8.97 1.72 11.94 -1 15 C-4 13.1875 -4 13.1875 -7 11 C-7 7.22089522 -6.00296038 6.53893899 -3.5 3.8125 C-2.8503125 3.09707031 -2.200625 2.38164063 -1.53125 1.64453125 C-1.0259375 1.10183594 -0.520625 0.55914063 0 0 Z " fill="#FFFFFF" transform="translate(57,616)"/>
<path d="M0 0 C4.60853797 0.72008406 8.67237409 2.31295939 13 4 C11.125 9.75 11.125 9.75 10 12 C5.24518354 11.42365861 2.02951788 9.44931479 -2 7 C-1.125 2.25 -1.125 2.25 0 0 Z " fill="#FFFFFF" transform="translate(249,568)"/>
<path d="M0 0 C4.85963179 0.60745397 8.7405518 2.72758967 13 5 C12.01 7.31 11.02 9.62 10 12 C5.39146203 11.27991594 1.32762591 9.68704061 -3 8 C-2.01 5.36 -1.02 2.72 0 0 Z " fill="#FFFFFF" transform="translate(19,274)"/>
<path d="M0 0 C4.08072342 0.55144911 4.91330796 0.91330796 8 4 C6.02 7.63 4.04 11.26 2 15 C-3 13 -3 13 -5 12 C-3.68938409 7.76570244 -2.05643741 3.92592596 0 0 Z " fill="#FFFFFF" transform="translate(177,196)"/>
<path d="M0 0 C2.31 0.33 4.62 0.66 7 1 C8.25127906 4.54667178 7.72285053 6.72253438 6.5625 10.25 C6.27503906 11.14203125 5.98757812 12.0340625 5.69140625 12.953125 C5.46324219 13.62859375 5.23507813 14.3040625 5 15 C2.36 14.34 -0.28 13.68 -3 13 C-2.01 8.71 -1.02 4.42 0 0 Z " fill="#FFFFFF" transform="translate(104,640)"/>
<path d="M0 0 C3.78496138 1.51398455 4.0072198 2.0144396 6 6 C3.36 8.64 0.72 11.28 -2 14 C-6 12 -6 12 -8 10 C-7.79014782 7.35263407 -7.21245709 6.22213739 -5.37109375 4.296875 C-4.73300781 3.78640625 -4.09492187 3.2759375 -3.4375 2.75 C-2.79683594 2.22921875 -2.15617187 1.7084375 -1.49609375 1.171875 C-1.00238281 0.78515625 -0.50867187 0.3984375 0 0 Z " fill="#FFFFFF" transform="translate(48,607)"/>
<path d="M0 0 C0.99 1.98 1.98 3.96 3 6 C-0.96 7.98 -4.92 9.96 -9 12 C-10.98 8.535 -10.98 8.535 -13 5 C-11.40377344 3.96679519 -9.79770894 2.94877571 -8.1875 1.9375 C-7.29417969 1.36902344 -6.40085937 0.80054688 -5.48046875 0.21484375 C-3 -1 -3 -1 0 0 Z " fill="#FFFFFF" transform="translate(35,587)"/>
<path d="M0 0 C4.73544283 0.39462024 8.65942958 0.96535762 13 3 C12.34 5.31 11.68 7.62 11 10 C9.20793453 9.85915204 7.41635083 9.71216299 5.625 9.5625 C4.62726562 9.48128906 3.62953125 9.40007812 2.6015625 9.31640625 C0 9 0 9 -2 8 C-1.125 1.125 -1.125 1.125 0 0 Z " fill="#FFFFFF" transform="translate(10,301)"/>
<path d="M0 0 C1.48819457 0.9019361 2.96532813 1.82214129 4.4375 2.75 C5.67306641 3.51570312 5.67306641 3.51570312 6.93359375 4.296875 C9.21744593 6.1792182 9.65514457 7.1157546 10 10 C9.34 10 8.68 10 8 10 C7.34 11.32 6.68 12.64 6 14 C1.40693504 12.5140084 -1.43569245 10.14985318 -5 7 C-3.35 4.69 -1.7 2.38 0 0 Z " fill="#FFFFFF" transform="translate(42,237)"/>
<path d="M0 0 C2.46800047 1.15173355 4.04783565 2.04783565 6 4 C5.79014782 6.64736593 5.21245709 7.77786261 3.37109375 9.703125 C2.73300781 10.21359375 2.09492188 10.7240625 1.4375 11.25 C0.79683594 11.77078125 0.15617188 12.2915625 -0.50390625 12.828125 C-1.24447266 13.40820312 -1.24447266 13.40820312 -2 14 C-5.16115776 12.63016497 -5.9927092 12.0109362 -8 9 C-6.85459775 7.68712379 -5.70866567 6.37470979 -4.5625 5.0625 C-3.92441406 4.33160156 -3.28632813 3.60070312 -2.62890625 2.84765625 C-1.77458541 1.87860647 -0.91348825 0.91348825 0 0 Z " fill="#FFFFFF" transform="translate(212,221)"/>
<path d="M0 0 C3.465 1.98 3.465 1.98 7 4 C5.59928507 9.29158974 2.14512755 11.77478044 -2 15 C-3.65 13.68 -5.3 12.36 -7 11 C-5.5140084 6.40693504 -3.14985318 3.56430755 0 0 Z " fill="#FFFFFF" transform="translate(201,211)"/>
<path d="M0 0 C0.6708712 1.6232687 1.33657029 3.24867578 2 4.875 C2.556875 6.23238281 2.556875 6.23238281 3.125 7.6171875 C4 10 4 10 4 12 C0.535 13.485 0.535 13.485 -3 15 C-3.84069415 13.39967863 -4.67231505 11.79458829 -5.5 10.1875 C-6.19609375 8.84751953 -6.19609375 8.84751953 -6.90625 7.48046875 C-8 5 -8 5 -8 2 C-4.91190305 0.23537317 -3.76687864 0 0 0 Z " fill="#FFFFFF" transform="translate(100,194)"/>
<path d="M0 0 C0.94921875 2.50390625 0.94921875 2.50390625 1.6875 5.5625 C2.06455078 7.08037109 2.06455078 7.08037109 2.44921875 8.62890625 C2.63097656 9.41136719 2.81273437 10.19382812 3 11 C-1.625 14 -1.625 14 -5 14 C-5.50512244 12.39743892 -6.00391627 10.79288208 -6.5 9.1875 C-6.7784375 8.29417969 -7.056875 7.40085937 -7.34375 6.48046875 C-8 4 -8 4 -8 1 C-3.375 -1.125 -3.375 -1.125 0 0 Z " fill="#FFFFFF" transform="translate(177,639)"/>
<path d="M0 0 C0.33 2.64 0.66 5.28 1 8 C-3.29 8.66 -7.58 9.32 -12 10 C-12.33 7.03 -12.66 4.06 -13 1 C-8.62426048 0.40667939 -4.42471556 -0.13827236 0 0 Z " fill="#FFFFFF" transform="translate(16,536)"/>
<path d="M0 0 C4.29 0 8.58 0 13 0 C13.38063221 2.3260857 13.71269945 4.66055264 14 7 C13 8 13 8 10.05859375 8.09765625 C8.26615234 8.08025391 8.26615234 8.08025391 6.4375 8.0625 C4.64119141 8.04896484 4.64119141 8.04896484 2.80859375 8.03515625 C1.88175781 8.02355469 0.95492188 8.01195312 0 8 C0 5.36 0 2.72 0 0 Z " fill="#FFFFFF" transform="translate(5,330)"/>
<path d="M0 0 C1.1875 3.5625 1.1875 3.5625 2 7 C0.40084119 7.69906942 -1.20455045 8.38389468 -2.8125 9.0625 C-3.70582031 9.44535156 -4.59914062 9.82820313 -5.51953125 10.22265625 C-8 11 -8 11 -11 10 C-12.1875 6.9375 -12.1875 6.9375 -13 4 C-11.40233897 3.13372601 -9.79660056 2.28233535 -8.1875 1.4375 C-7.29417969 0.96183594 -6.40085938 0.48617188 -5.48046875 -0.00390625 C-3 -1 -3 -1 0 0 Z " fill="#FFFFFF" transform="translate(247,269)"/>
<path d="M0 0 C3.63 1.98 7.26 3.96 11 6 C10.67 7.98 10.34 9.96 10 12 C7 13 7 13 4.51953125 12.00390625 C3.62621094 11.52824219 2.73289062 11.05257813 1.8125 10.5625 C0.46091797 9.85287109 0.46091797 9.85287109 -0.91796875 9.12890625 C-1.60503906 8.75636719 -2.29210937 8.38382812 -3 8 C-2.45276317 4.62537285 -1.9451 2.91765 0 0 Z " fill="#FFFFFF" transform="translate(25,261)"/>
<path d="M0 0 C2.52588702 2.36292656 3.88820837 3.66462511 5 7 C3.75443908 7.81928886 2.50333365 8.63015186 1.25 9.4375 C0.55390625 9.88996094 -0.1421875 10.34242188 -0.859375 10.80859375 C-2.92957014 11.9608009 -4.68696324 12.54676982 -7 13 C-8.5625 11.25 -8.5625 11.25 -10 9 C-9.875 7.03125 -9.875 7.03125 -9 5 C-6.93359375 3.515625 -6.93359375 3.515625 -4.4375 2.25 C-3.61121094 1.82203125 -2.78492188 1.3940625 -1.93359375 0.953125 C-1.29550781 0.63859375 -0.65742188 0.3240625 0 0 Z " fill="#FFFFFF" transform="translate(238,255)"/>
<path d="M0 0 C3.45195767 1.4258086 5.1014256 3.09746334 7.25 6.125 C7.77078125 6.84945312 8.2915625 7.57390625 8.828125 8.3203125 C9.40820312 9.15175781 9.40820312 9.15175781 10 10 C8.35 11.32 6.7 12.64 5 14 C0.70761377 12.34908222 -1.8793915 9.26245434 -5 6 C-3.63016497 2.83884224 -3.0109362 2.0072908 0 0 Z " fill="#FFFFFF" transform="translate(220,611)"/>
<path d="M0 0 C0.33 2.64 0.66 5.28 1 8 C-5.435 8.495 -5.435 8.495 -12 9 C-12.33 6.36 -12.66 3.72 -13 1 C-11.39796533 0.63631108 -9.79325797 0.28438048 -8.1875 -0.0625 C-7.29417969 -0.25972656 -6.40085938 -0.45695312 -5.48046875 -0.66015625 C-3 -1 -3 -1 0 0 Z " fill="#FFFFFF" transform="translate(260,309)"/>
<path d="M0 0 C4.10958767 1.45044271 7.43258745 3.51110752 11 6 C10.48967606 9.77639718 9.79233071 11.44722581 7 14 C5.51726301 12.87970983 4.03891114 11.75361382 2.5625 10.625 C1.73878906 9.99851562 0.91507813 9.37203125 0.06640625 8.7265625 C-2 7 -2 7 -3 5 C-1.5625 2.375 -1.5625 2.375 0 0 Z " fill="#FFFFFF" transform="translate(236,591)"/>
<path d="M0 0 C0.33 2.64 0.66 5.28 1 8 C-1.64458379 9.32229189 -3.67761301 9.09677194 -6.625 9.0625 C-7.62789063 9.05347656 -8.63078125 9.04445313 -9.6640625 9.03515625 C-10.43492187 9.02355469 -11.20578125 9.01195312 -12 9 C-12.33 6.36 -12.66 3.72 -13 1 C-8.62426048 0.40667939 -4.42471556 -0.13827236 0 0 Z " fill="#FFFFFF" transform="translate(271,501)"/>
<path d="M0 0 C4.51617599 -0.07654536 8.59085217 -0.10228696 13 1 C12.67 3.64 12.34 6.28 12 9 C7.71 8.67 3.42 8.34 -1 8 C-0.67 5.36 -0.34 2.72 0 0 Z " fill="#FFFFFF" transform="translate(7,316)"/>
<path d="M0 0 C1.46555316 0.73579212 2.92224487 1.48925126 4.375 2.25 C5.18710937 2.66765625 5.99921875 3.0853125 6.8359375 3.515625 C9.20801205 5.14267975 9.97094804 6.35386639 11 9 C10.01 10.32 9.02 11.64 8 13 C4.78147169 12.36934243 2.49198931 11.21979305 -0.25 9.4375 C-0.95640625 8.98246094 -1.6628125 8.52742188 -2.390625 8.05859375 C-3.18726562 7.53458984 -3.18726562 7.53458984 -4 7 C-1.125 1.125 -1.125 1.125 0 0 Z " fill="#FFFFFF" transform="translate(33,249)"/>
<path d="M0 0 C3.465 1.98 3.465 1.98 7 4 C5.44298069 8.67105792 2.91552627 12.08705685 0 16 C-1.98 14.68 -3.96 13.36 -6 12 C-4.68139111 7.38486888 -2.78644563 3.90102388 0 0 Z " fill="#FFFFFF" transform="translate(190,202)"/>
<path d="M0 0 C3.28465896 2.79196011 5.01321958 6.23196817 7 10 C7 10.66 7 11.32 7 12 C4.75 13.75 4.75 13.75 2 15 C-0.62542211 14.52265052 -1.61495757 13.52494117 -3.171875 11.40234375 C-4.3125 9.5625 -4.3125 9.5625 -6 6 C-4.75453595 2.26360784 -3.36595047 1.81243487 0 0 Z " fill="#FFFFFF" transform="translate(85,200)"/>
<path d="M0 0 C3.465 1.485 3.465 1.485 7 3 C5.68 6.96 4.36 10.92 3 15 C0.36 14.34 -2.28 13.68 -5 13 C-4.54803755 11.39402675 -4.08817673 9.79027492 -3.625 8.1875 C-3.36976562 7.29417969 -3.11453125 6.40085937 -2.8515625 5.48046875 C-2 3 -2 3 0 0 Z " fill="#FFFFFF" transform="translate(92,636)"/>
<path d="M0 0 C3.465 1.485 3.465 1.485 7 3 C5.25807076 7.23039958 3.46440486 11.1273638 1 15 C-1.31 14.01 -3.62 13.02 -6 12 C-5.36934243 8.78147169 -4.21979305 6.49198931 -2.4375 3.75 C-1.98246094 3.04359375 -1.52742188 2.3371875 -1.05859375 1.609375 C-0.53458984 0.81273437 -0.53458984 0.81273437 0 0 Z " fill="#FFFFFF" transform="translate(80,631)"/>
<path d="M0 0 C1.60379341 -0.05416188 3.20811406 -0.09286638 4.8125 -0.125 C5.70582031 -0.14820313 6.59914063 -0.17140625 7.51953125 -0.1953125 C10 0 10 0 13 2 C12.67 4.31 12.34 6.62 12 9 C7.71 8.67 3.42 8.34 -1 8 C-0.67 5.36 -0.34 2.72 0 0 Z " fill="#FFFFFF" transform="translate(10,440)"/>
<path d="M0 0 C5.445 1.485 5.445 1.485 11 3 C12 8 12 8 10 12 C6.04 10.68 2.08 9.36 -2 8 C-1.34 5.36 -0.68 2.72 0 0 Z " fill="#FFFFFF" transform="translate(14,287)"/>
<path d="M0 0 C2.70199284 1.28230169 3.5115765 3.27726167 4.84375 5.875 C3.41652341 7.0748278 1.97659224 8.2595576 0.53125 9.4375 C-0.26925781 10.09878906 -1.06976563 10.76007813 -1.89453125 11.44140625 C-2.64089844 11.91449219 -3.38726562 12.38757813 -4.15625 12.875 C-7.89264216 11.62953595 -8.34381513 10.24095047 -10.15625 6.875 C-8.92071724 5.67245476 -7.66722661 4.48833768 -6.40625 3.3125 C-5.71015625 2.65121094 -5.0140625 1.98992187 -4.296875 1.30859375 C-2.15625 -0.125 -2.15625 -0.125 0 0 Z " fill="#FFFFFF" transform="translate(222.15625,232.125)"/>
<path d="M0 0 C2.64 0.99 5.28 1.98 8 3 C6.35 6.96 4.7 10.92 3 15 C0.69 14.34 -1.62 13.68 -4 13 C-3.71517632 11.58194169 -3.42181856 10.16559621 -3.125 8.75 C-2.96257812 7.96109375 -2.80015625 7.1721875 -2.6328125 6.359375 C-2.00849925 4.03168856 -1.15161458 2.10968048 0 0 Z " fill="#FFFFFF" transform="translate(164,191)"/>
<path d="M0 0 C1.51953125 1.7421875 1.51953125 1.7421875 2.8125 3.875 C3.25207031 4.57367187 3.69164062 5.27234375 4.14453125 5.9921875 C5 8 5 8 4 11 C0.9375 12.1875 0.9375 12.1875 -2 13 C-3.00533667 11.37829621 -4.00411907 9.75252763 -5 8.125 C-5.556875 7.22007812 -6.11375 6.31515625 -6.6875 5.3828125 C-8 3 -8 3 -8 1 C-4.91724629 -0.8716719 -3.38726137 -1.33279958 0 0 Z " fill="#FFFFFF" transform="translate(201,629)"/>
<path d="M0 0 C4.29 0.33 8.58 0.66 13 1 C12.67 3.64 12.34 6.28 12 9 C7.71 8.67 3.42 8.34 -1 8 C-0.67 5.36 -0.34 2.72 0 0 Z " fill="#FFFFFF" transform="translate(4,481)"/>
<path d="M0 0 C0 2.97 0 5.94 0 9 C-4.29 9 -8.58 9 -13 9 C-13 6.36 -13 3.72 -13 1 C-11.02087544 0.83283412 -9.04169915 0.66628044 -7.0625 0.5 C-5.40927734 0.36078125 -5.40927734 0.36078125 -3.72265625 0.21875 C-1 0 -1 0 0 0 Z " fill="#FFFFFF" transform="translate(263,336)"/>
<path d="M0 0 C0 2.97 0 5.94 0 9 C-4.29 9 -8.58 9 -13 9 C-13 6.69 -13 4.38 -13 2 C-11.39658445 1.66307215 -9.79223445 1.33058907 -8.1875 1 C-7.29417969 0.814375 -6.40085938 0.62875 -5.48046875 0.4375 C-3 0 -3 0 0 0 Z " fill="#FFFFFF" transform="translate(262,322)"/>
<path d="M0 0 C2.97 0 5.94 0 9 0 C9.33 3.96 9.66 7.92 10 12 C7.36 12.33 4.72 12.66 2 13 C1.34 8.71 0.68 4.42 0 0 Z " fill="#FFFFFF" transform="translate(119,188)"/>
<path d="M0 0 C1.65 3.63 3.3 7.26 5 11 C2.53721199 13.46278801 0.29323018 13.99771255 -3 15 C-3.67305018 13.39850114 -4.33822227 11.79368971 -5 10.1875 C-5.37125 9.29417969 -5.7425 8.40085937 -6.125 7.48046875 C-7 5 -7 5 -7 2 C-2.25 0 -2.25 0 0 0 Z " fill="#FFFFFF" transform="translate(189,634)"/>
<path d="M0 0 C2.93200474 2.85276137 5.64315404 5.65079784 8 9 C7.3125 10.9375 7.3125 10.9375 6 13 C3.375 13.75 3.375 13.75 1 14 C-0.00873016 12.73608512 -1.00671822 11.46359117 -2 10.1875 C-2.556875 9.47980469 -3.11375 8.77210938 -3.6875 8.04296875 C-5 6 -5 6 -5 3 C-2.5 1.3125 -2.5 1.3125 0 0 Z " fill="#FFFFFF" transform="translate(210,620)"/>
<path d="M0 0 C0.66 2.31 1.32 4.62 2 7 C0.58774074 7.67595315 -0.83002905 8.34040059 -2.25 9 C-3.43335938 9.556875 -3.43335938 9.556875 -4.640625 10.125 C-7 11 -7 11 -11 11 C-11.33 8.36 -11.66 5.72 -12 3 C-10.56445975 2.49440092 -9.1264798 1.9957251 -7.6875 1.5 C-6.88699219 1.2215625 -6.08648437 0.943125 -5.26171875 0.65625 C-3 0 -3 0 0 0 Z " fill="#FFFFFF" transform="translate(23,562)"/>
<path d="M0 0 C1.97909398 -0.02686553 3.95828971 -0.04633375 5.9375 -0.0625 C7.03964844 -0.07410156 8.14179688 -0.08570313 9.27734375 -0.09765625 C12 0 12 0 13 1 C13.04080783 2.99958364 13.04254356 5.00045254 13 7 C11.39658445 7.33692785 9.79223445 7.66941093 8.1875 8 C7.29417969 8.185625 6.40085937 8.37125 5.48046875 8.5625 C3 9 3 9 0 9 C0 6.03 0 3.06 0 0 Z " fill="#FFFFFF" transform="translate(2,523)"/>
<path d="M0 0 C4.29 0 8.58 0 13 0 C13 2.64 13 5.28 13 8 C8.71 8 4.42 8 0 8 C0 5.36 0 2.72 0 0 Z " fill="#FFFFFF" transform="translate(259,516)"/>
<path d="M0 0 C0.33 2.64 0.66 5.28 1 8 C-7.42857143 10.28571429 -7.42857143 10.28571429 -12 10 C-12.33 7.69 -12.66 5.38 -13 3 C-4.4 0 -4.4 0 0 0 Z " fill="#FFFFFF" transform="translate(268,473)"/>
<path d="M0 0 C4.29 0 8.58 0 13 0 C13 2.64 13 5.28 13 8 C8.71 8 4.42 8 0 8 C0 5.36 0 2.72 0 0 Z " fill="#FFFFFF" transform="translate(248,406)"/>
<path d="M0 0 C4.29 0 8.58 0 13 0 C13 2.64 13 5.28 13 8 C8.71 8 4.42 8 0 8 C0 5.36 0 2.72 0 0 Z " fill="#FFFFFF" transform="translate(250,351)"/>
<path d="M0 0 C0.66 0.33 1.32 0.66 2 1 C2.40729228 3.32156597 2.74438677 5.6568787 3 8 C1.3767313 8.6708712 -0.24867578 9.33657029 -1.875 10 C-2.77992188 10.37125 -3.68484375 10.7425 -4.6171875 11.125 C-7 12 -7 12 -9 12 C-9.66 9.69 -10.32 7.38 -11 5 C-9.730447 4.35165346 -8.45930294 3.70642185 -7.1875 3.0625 C-6.47980469 2.70285156 -5.77210938 2.34320313 -5.04296875 1.97265625 C-3 1 -3 1 0 0 Z " fill="#FFFFFF" transform="translate(250,281)"/>
<path d="M0 0 C0.66 3.96 1.32 7.92 2 12 C-0.64 12.33 -3.28 12.66 -6 13 C-8.28571429 4.57142857 -8.28571429 4.57142857 -8 0 C-4.63458162 -1.08174162 -3.70152678 -0.92538169 0 0 Z " fill="#FFFFFF" transform="translate(164,643)"/>
<path d="M0 0 C1.65 0.33 3.3 0.66 5 1 C5.66 2.32 6.32 3.64 7 5 C4.03 9.455 4.03 9.455 1 14 C-4 12 -4 12 -6 9 C-4.02 6.03 -2.04 3.06 0 0 Z " fill="#FFFFFF" transform="translate(67,625)"/>
<path d="M0 0 C3.21852831 0.63065757 5.50801069 1.78020695 8.25 3.5625 C8.95640625 4.01753906 9.6628125 4.47257813 10.390625 4.94140625 C11.18726563 5.46541016 11.18726563 5.46541016 12 6 C10.92598892 8.91517292 10.22189824 10.77810176 8 13 C4.7 11.02 1.4 9.04 -2 7 C-1 2 -1 2 0 0 Z " fill="#FFFFFF" transform="translate(243,580)"/>
<path d="M0 0 C4.29 0 8.58 0 13 0 C13.04241723 2.33294775 13.04092937 4.66702567 13 7 C12 8 12 8 9.27734375 8.09765625 C7.62412109 8.08025391 7.62412109 8.08025391 5.9375 8.0625 C4.83277344 8.05347656 3.72804687 8.04445313 2.58984375 8.03515625 C1.30787109 8.01775391 1.30787109 8.01775391 0 8 C0 5.36 0 2.72 0 0 Z " fill="#FFFFFF" transform="translate(248,420)"/>
<path d="M0 0 C2.64 0.33 5.28 0.66 8 1 C8.08159574 5.16138263 7.98248524 8.9472484 7 13 C4.36 13 1.72 13 -1 13 C-0.67 8.71 -0.34 4.42 0 0 Z " fill="#FFFFFF" transform="translate(116,643)"/>
<path d="M0 0 C4.29 0.66 8.58 1.32 13 2 C13 8 13 8 12 10 C7.71 9.34 3.42 8.68 -1 8 C-0.67 5.36 -0.34 2.72 0 0 Z " fill="#FFFFFF" transform="translate(6,467)"/>
<path d="M0 0 C1 2 1 2 1 8 C-2.96 8.66 -6.92 9.32 -11 10 C-11.66 7.36 -12.32 4.72 -13 2 C-11.39658445 1.66307215 -9.79223445 1.33058907 -8.1875 1 C-7.29417969 0.814375 -6.40085937 0.62875 -5.48046875 0.4375 C-3 0 -3 0 0 0 Z " fill="#FFFFFF" transform="translate(265,460)"/>
<path d="M0 0 C4.29 0 8.58 0 13 0 C13 2.64 13 5.28 13 8 C11.20841511 8.02696365 9.41671527 8.04637917 7.625 8.0625 C6.62726563 8.07410156 5.62953125 8.08570313 4.6015625 8.09765625 C2 8 2 8 0 7 C0 4.69 0 2.38 0 0 Z " fill="#FFFFFF" transform="translate(249,365)"/>
<path d="M0 0 C4 4 4 4 5 7 C0.545 9.97 0.545 9.97 -4 13 C-8 11 -8 11 -10 7 C-6.7 4.69 -3.4 2.38 0 0 Z " fill="#FFFFFF" transform="translate(230,243)"/>
<path d="M0 0 C1.79206547 0.14084796 3.58364917 0.28783701 5.375 0.4375 C6.87160156 0.55931641 6.87160156 0.55931641 8.3984375 0.68359375 C11 1 11 1 13 2 C13 4.31 13 6.62 13 9 C11.58344207 9.0272415 10.16672955 9.04650467 8.75 9.0625 C7.56664062 9.07990234 7.56664062 9.07990234 6.359375 9.09765625 C4.09308998 9.00385306 2.1711105 8.63241063 0 8 C0 5.36 0 2.72 0 0 Z " fill="#FFFFFF" transform="translate(258,529)"/>
<path d="M0 0 C0 2.31 0 4.62 0 7 C-4.53701494 8.45184478 -8.18061476 9.23509196 -13 9 C-13 6.69 -13 4.38 -13 2 C-8.46298506 0.54815522 -4.81938524 -0.23509196 0 0 Z " fill="#FFFFFF" transform="translate(271,488)"/>
<path d="M0 0 C0.33 2.64 0.66 5.28 1 8 C-3.29 8.66 -7.58 9.32 -12 10 C-12.33 7.36 -12.66 4.72 -13 2 C-11.20873548 1.66451233 -9.41697413 1.33167645 -7.625 1 C-6.62726563 0.814375 -5.62953125 0.62875 -4.6015625 0.4375 C-2 0 -2 0 0 0 Z " fill="#FFFFFF" transform="translate(264,447)"/>
<path d="M0 0 C0.90105469 0.00902344 1.80210937 0.01804687 2.73046875 0.02734375 C3.41753906 0.03894531 4.10460937 0.05054688 4.8125 0.0625 C4.8125 2.7025 4.8125 5.3425 4.8125 8.0625 C0.5225 8.0625 -3.7675 8.0625 -8.1875 8.0625 C-8.1875 5.7525 -8.1875 3.4425 -8.1875 1.0625 C-5.17259443 0.05753148 -3.14568308 -0.04085303 0 0 Z " fill="#FFFFFF" transform="translate(257.1875,433.9375)"/>
<path d="M0 0 C4.29 0.33 8.58 0.66 13 1 C12.67 3.64 12.34 6.28 12 9 C8.04 8.67 4.08 8.34 0 8 C0 5.36 0 2.72 0 0 Z " fill="#FFFFFF" transform="translate(8,454)"/>
<path d="M0 0 C4.29 0 8.58 0 13 0 C13 2.31 13 4.62 13 7 C10.00519083 7.8723412 7.36424089 8.10829766 4.25 8.0625 C3.45078125 8.05347656 2.6515625 8.04445313 1.828125 8.03515625 C1.22484375 8.02355469 0.6215625 8.01195312 0 8 C0 5.36 0 2.72 0 0 Z " fill="#FFFFFF" transform="translate(8,386)"/>
<path d="M0 0 C0.99 4.29 1.98 8.58 3 13 C0.69 13.33 -1.62 13.66 -4 14 C-4.6708712 12.3767313 -5.33657029 10.75132422 -6 9.125 C-6.37125 8.22007812 -6.7425 7.31515625 -7.125 6.3828125 C-8 4 -8 4 -8 2 C-5.09399739 0.74335022 -3.20395416 0 0 0 Z " fill="#FFFFFF" transform="translate(113,190)"/>
<path d="M0 0 C4.29 0 8.58 0 13 0 C13 2.64 13 5.28 13 8 C8.48382401 8.07654536 4.40914783 8.10228696 0 7 C0 4.69 0 2.38 0 0 Z " fill="#FFFFFF" transform="translate(10,427)"/>
<path d="M0 0 C4.29 0.33 8.58 0.66 13 1 C13 3.64 13 6.28 13 9 C8.71 8.67 4.42 8.34 0 8 C0 5.36 0 2.72 0 0 Z " fill="#FFFFFF" transform="translate(248,392)"/>
<path d="M0 0 C4.29 0.33 8.58 0.66 13 1 C13 3.64 13 6.28 13 9 C8.71 8.67 4.42 8.34 0 8 C0 5.36 0 2.72 0 0 Z " fill="#FFFFFF" transform="translate(249,378)"/>
<path d="M0 0 C0 2.64 0 5.28 0 8 C-1.97854258 8.19397476 -3.9578648 8.38001321 -5.9375 8.5625 C-7.59072266 8.71912109 -7.59072266 8.71912109 -9.27734375 8.87890625 C-10.62505859 8.93884766 -10.62505859 8.93884766 -12 9 C-13 8 -13 8 -13.0625 4.4375 C-13.041875 3.303125 -13.02125 2.16875 -13 1 C-11.20843648 0.83222817 -9.4167455 0.66581706 -7.625 0.5 C-6.62726562 0.4071875 -5.62953125 0.314375 -4.6015625 0.21875 C-2 0 -2 0 0 0 Z " fill="#FFFFFF" transform="translate(20,371)"/>
<path d="M0 0 C1.8161982 0.42188459 3.62794073 0.86299165 5.4375 1.3125 C6.95150391 1.67794922 6.95150391 1.67794922 8.49609375 2.05078125 C9.32238281 2.36402344 10.14867187 2.67726563 11 3 C12 6 12 6 10 11 C6.37 10.01 2.74 9.02 -1 8 C-2 4 -2 4 -1.0625 1.75 C-0.711875 1.1725 -0.36125 0.595 0 0 Z " fill="#FFFFFF" transform="translate(254,556)"/>
<path d="M0 0 C0 2.97 0 5.94 0 9 C-3.96 9 -7.92 9 -12 9 C-12 6.36 -12 3.72 -12 1 C-10.37512529 0.83211627 -8.75009558 0.66573213 -7.125 0.5 C-6.22007813 0.4071875 -5.31515625 0.314375 -4.3828125 0.21875 C-2 0 -2 0 0 0 Z " fill="#FFFFFF" transform="translate(23,412)"/>
<path d="M0 0 C0.79921875 0.00902344 1.5984375 0.01804687 2.421875 0.02734375 C3.02515625 0.03894531 3.6284375 0.05054688 4.25 0.0625 C4.58 2.7025 4.91 5.3425 5.25 8.0625 C0.96 8.0625 -3.33 8.0625 -7.75 8.0625 C-8.08 5.7525 -8.41 3.4425 -8.75 1.0625 C-5.75519083 0.1901588 -3.11424089 -0.04579766 0 0 Z " fill="#FFFFFF" transform="translate(17.75,398.9375)"/>
<path d="M0 0 C4.29 0.33 8.58 0.66 13 1 C13 3.31 13 5.62 13 8 C11.02090602 8.02686553 9.04171029 8.04633375 7.0625 8.0625 C5.96035156 8.07410156 4.85820312 8.08570313 3.72265625 8.09765625 C1 8 1 8 0 7 C-0.04092937 4.66702567 -0.04241723 2.33294775 0 0 Z " fill="#FFFFFF" transform="translate(2,496)"/>
<path d="M0 0 C0.33 2.64 0.66 5.28 1 8 C-5.435 8.495 -5.435 8.495 -12 9 C-12.33 6.36 -12.66 3.72 -13 1 C-11.58366664 0.83052421 -10.16691467 0.66454493 -8.75 0.5 C-7.56664062 0.36078125 -7.56664062 0.36078125 -6.359375 0.21875 C-4 0 -4 0 0 0 Z " fill="#FFFFFF" transform="translate(18,357)"/>
<path d="M0 0 C3.94139078 1.66751148 6.7892812 4.22710649 10 7 C9.42805835 10.31726155 8.42999536 11.72635823 6 14 C4.65499045 12.93119777 3.32428562 11.84437492 2 10.75 C1.2575 10.14671875 0.515 9.5434375 -0.25 8.921875 C-2 7 -2 7 -2 3 C-1.34 2.01 -0.68 1.02 0 0 Z " fill="#FFFFFF" transform="translate(228,602)"/>
<path d="M0 0 C0.33 3.96 0.66 7.92 1 12 C-1.64 12 -4.28 12 -7 12 C-8.28317892 8.15046324 -8.06643637 5.05261865 -8 1 C-5.10765685 0.17361624 -3.11257569 0 0 0 Z " fill="#FFFFFF" transform="translate(151,644)"/>
<path d="M0 0 C3.96 0.33 7.92 0.66 12 1 C12 3.31 12 5.62 12 8 C6.06 8.495 6.06 8.495 0 9 C0 6.03 0 3.06 0 0 Z " fill="#FFFFFF" transform="translate(2,509)"/>
<path d="M0 0 C4.29 0 8.58 0 13 0 C13 2.31 13 4.62 13 7 C8.71 7 4.42 7 0 7 C0 4.69 0 2.38 0 0 Z " fill="#FFFFFF" transform="translate(6,345)"/>
<path d="M0 0 C2.31 0 4.62 0 7 0 C7 3.63 7 7.26 7 11 C4.36 11 1.72 11 -1 11 C-1.0270043 9.54176788 -1.04639787 8.08339325 -1.0625 6.625 C-1.07410156 5.81289063 -1.08570313 5.00078125 -1.09765625 4.1640625 C-1 2 -1 2 0 0 Z " fill="#FFFFFF" transform="translate(130,645)"/>
<path d="M0 0 C0.99 0 1.98 0 3 0 C4.67099977 0.31088368 6.33871537 0.64080332 8 1 C8 2.65 8 4.3 8 6 C5.625 6.625 5.625 6.625 3 7 C2.34 6.34 1.68 5.68 1 5 C0.67 5.33 0.34 5.66 0 6 C-2.5 6.125 -2.5 6.125 -5 6 C-6 5 -6 5 -6.0625 2.4375 C-6.041875 1.633125 -6.02125 0.82875 -6 0 C-3.47064411 -1.26467795 -2.65809097 -0.7249339 0 0 Z " fill="#FFFFFF" transform="translate(71,399)"/>
<path d="M0 0 C1.65 0.33 3.3 0.66 5 1 C5.33 1.99 5.66 2.98 6 4 C3.72058766 7.41911851 3.59525083 7.10118729 0 8 C-0.99 9.485 -0.99 9.485 -2 11 C-3.65 10.67 -5.3 10.34 -7 10 C-7 8.35 -7 6.7 -7 5 C-5.824375 4.87625 -5.824375 4.87625 -4.625 4.75 C-1.85250896 4.27193661 -1.85250896 4.27193661 -0.6875 1.9375 C-0.460625 1.298125 -0.23375 0.65875 0 0 Z " fill="#FFFFFF" transform="translate(96,410)"/>
<path d="M0 0 C1.2065625 0.0309375 1.2065625 0.0309375 2.4375 0.0625 C3.0625 2.4375 3.0625 2.4375 3.4375 5.0625 C2.7775 5.7225 2.1175 6.3825 1.4375 7.0625 C-0.6875 6.6875 -0.6875 6.6875 -2.5625 6.0625 C-2.94468767 4.40635343 -3.27645102 2.73792976 -3.5625 1.0625 C-2.5625 0.0625 -2.5625 0.0625 0 0 Z " fill="#FFFFFF" transform="translate(76.5625,413.9375)"/>
<path d="M0 0 C1.2065625 0.0309375 1.2065625 0.0309375 2.4375 0.0625 C3.0625 2.4375 3.0625 2.4375 3.4375 5.0625 C2.7775 5.7225 2.1175 6.3825 1.4375 7.0625 C-0.6875 6.6875 -0.6875 6.6875 -2.5625 6.0625 C-2.94468767 4.40635343 -3.27645102 2.73792976 -3.5625 1.0625 C-2.5625 0.0625 -2.5625 0.0625 0 0 Z " fill="#FFFFFF" transform="translate(99.5625,393.9375)"/>
<path d="M0 0 C1.66611905 -0.042721 3.33382885 -0.04063832 5 0 C6 1 6 1 6.0625 3.5625 C6.041875 4.366875 6.02125 5.17125 6 6 C3.625 6.625 3.625 6.625 1 7 C0.34 6.34 -0.32 5.68 -1 5 C-0.625 2.375 -0.625 2.375 0 0 Z " fill="#FFFFFF" transform="translate(85,382)"/>
<path d="M0 0 C1.65 0 3.3 0 5 0 C5.625 2.375 5.625 2.375 6 5 C5.34 5.66 4.68 6.32 4 7 C1.875 6.625 1.875 6.625 0 6 C-1.125 2.25 -1.125 2.25 0 0 Z " fill="#FFFFFF" transform="translate(68,408)"/>
<path d="M0 0 C1.125 3.75 1.125 3.75 0 6 C-1.66611905 6.042721 -3.33382885 6.04063832 -5 6 C-6 5 -6 5 -6.0625 2.4375 C-6.041875 1.633125 -6.02125 0.82875 -6 0 C-3.50907189 -1.24546405 -2.58919267 -0.7767578 0 0 Z " fill="#FFFFFF" transform="translate(92,407)"/>
<path d="M0 0 C2.475 0.99 2.475 0.99 5 2 C4.67 3.65 4.34 5.3 4 7 C2.35 7 0.7 7 -1 7 C-1.625 4.625 -1.625 4.625 -2 2 C-1.34 1.34 -0.68 0.68 0 0 Z " fill="#FFFFFF" transform="translate(79,406)"/>
<path d="M0 0 C1.67542976 0.28604898 3.34385343 0.61781233 5 1 C5.33 1.99 5.66 2.98 6 4 C5.01 5.485 5.01 5.485 4 7 C2.35 6.67 0.7 6.34 -1 6 C-1.042721 4.33388095 -1.04063832 2.66617115 -1 1 C-0.67 0.67 -0.34 0.34 0 0 Z " fill="#FFFFFF" transform="translate(99,402)"/>
<path d="M0 0 C1.66611905 -0.042721 3.33382885 -0.04063832 5 0 C6 1 6 1 6.0625 3.5625 C6.041875 4.366875 6.02125 5.17125 6 6 C4.1875 6.6875 4.1875 6.6875 2 7 C0.1875 5.8125 0.1875 5.8125 -1 4 C-0.6875 1.8125 -0.6875 1.8125 0 0 Z " fill="#FFFFFF" transform="translate(90,400)"/>
<path d="M0 0 C1.67542976 0.28604898 3.34385343 0.61781233 5 1 C5.33 1.99 5.66 2.98 6 4 C5.01 5.485 5.01 5.485 4 7 C2.35 6.67 0.7 6.34 -1 6 C-1.042721 4.33388095 -1.04063832 2.66617115 -1 1 C-0.67 0.67 -0.34 0.34 0 0 Z " fill="#FFFFFF" transform="translate(87,391)"/>
<path d="M0 0 C1.65 0 3.3 0 5 0 C5.33 1.65 5.66 3.3 6 5 C4.02 5.99 4.02 5.99 2 7 C1.01 6.34 0.02 5.68 -1 5 C-0.67 3.35 -0.34 1.7 0 0 Z " fill="#FFFFFF" transform="translate(76,383)"/>
<path d="M0 0 C1.66611905 -0.042721 3.33382885 -0.04063832 5 0 C6 1 6 1 6.0625 3.5625 C6.041875 4.366875 6.02125 5.17125 6 6 C4.02 6 2.04 6 0 6 C-1.125 2.25 -1.125 2.25 0 0 Z " fill="#FFFFFF" transform="translate(93,386)"/>
<path d="M0 0 C0 1.65 0 3.3 0 5 C-1.65614657 5.38218767 -3.32457024 5.71395102 -5 6 C-6 5 -6 5 -6.0625 2.4375 C-6.041875 1.633125 -6.02125 0.82875 -6 0 C-3.50907189 -1.24546405 -2.58919267 -0.7767578 0 0 Z " fill="#FFFFFF" transform="translate(87,416)"/>
<path d="M0 0 C1.67542976 0.28604898 3.34385343 0.61781233 5 1 C5 2.65 5 4.3 5 6 C1.25 7.125 1.25 7.125 -1 6 C-1.042721 4.33388095 -1.04063832 2.66617115 -1 1 C-0.67 0.67 -0.34 0.34 0 0 Z " fill="#FFFFFF" transform="translate(82,400)"/>
<path d="M0 0 C1.67542976 0.28604898 3.34385343 0.61781233 5 1 C5 2.65 5 4.3 5 6 C1.25 7.125 1.25 7.125 -1 6 C-1.042721 4.33388095 -1.04063832 2.66617115 -1 1 C-0.67 0.67 -0.34 0.34 0 0 Z " fill="#FFFFFF" transform="translate(79,391)"/>
<path d="M0 0 C1.98 0 3.96 0 6 0 C6 1.98 6 3.96 6 6 C4.02 6 2.04 6 0 6 C0 4.02 0 2.04 0 0 Z " fill="#FFFFFF" transform="translate(69,389)"/>
</svg>
